<svg width="2000" height="2000" viewBox="0 0 2000 2000" fill="none" xmlns="http://www.w3.org/2000/svg">
<rect width="2000" height="2000" fill="#0D0D0D"/>
<g filter="url(#filter0_n_105_48)">
<path fill-rule="evenodd" clip-rule="evenodd" d="M645.169 735.295C736.279 735.295 791.608 818.491 791.608 938.123C791.607 1057.06 737.586 1132.01 650.383 1132.01C597.021 1132.01 555.374 1104.51 529.993 1057.07V1247.3C529.993 1256.91 522.609 1264.71 513.514 1264.71H339.991C330.899 1264.7 323.53 1256.9 323.529 1247.3V1118.65C323.531 1108.22 332.181 1100.14 341.99 1101.4L372.913 1105.36C382.724 1106.61 391.375 1098.52 391.375 1088.08V857.674C391.374 847.234 382.724 839.138 372.913 840.396L341.99 844.357C332.18 845.615 323.529 837.52 323.529 827.079V766.456C323.529 756.849 330.899 749.05 339.991 749.046H513.514C522.609 749.046 529.993 756.846 529.993 766.456V806.802C554.071 761.427 593.761 735.297 645.169 735.295ZM591.161 867.294C548.862 867.294 540.402 894.116 540.402 933.992C540.402 973.181 548.86 999.991 591.161 999.991C632.809 999.99 652.989 973.181 652.989 933.992C652.988 894.117 632.808 867.295 591.161 867.294Z" fill="url(#paint0_linear_105_48)"/>
<path fill-rule="evenodd" clip-rule="evenodd" d="M1530.03 735.295C1621.14 735.295 1676.47 818.491 1676.47 938.123C1676.47 1057.07 1622.45 1132.01 1535.25 1132.01C1481.88 1132.01 1440.24 1104.51 1414.86 1057.07V1247.3C1414.86 1256.91 1407.47 1264.71 1398.38 1264.71H1224.87C1215.78 1264.71 1208.39 1256.91 1208.39 1247.3V1118.65C1208.39 1108.22 1217.04 1100.14 1226.85 1101.4L1257.78 1105.36C1267.59 1106.61 1276.24 1098.52 1276.24 1088.08V857.674C1276.24 847.234 1267.59 839.138 1257.78 840.396L1226.85 844.357C1217.04 845.615 1208.39 837.52 1208.39 827.079V766.456C1208.39 756.846 1215.78 749.046 1224.87 749.046H1398.38C1407.47 749.046 1414.86 756.846 1414.86 766.456V806.802C1438.93 761.428 1478.62 735.298 1530.03 735.295ZM1476.02 867.294C1433.72 867.295 1425.27 894.116 1425.26 933.992C1425.26 973.181 1433.72 999.991 1476.02 999.991C1517.67 999.991 1537.85 973.182 1537.85 933.992C1537.85 894.116 1517.67 867.294 1476.02 867.294Z" fill="url(#paint1_linear_105_48)"/>
<path fill-rule="evenodd" clip-rule="evenodd" d="M1009.84 735.295C1122.54 735.299 1197.47 814.43 1197.47 933.464C1197.46 1053.18 1122.54 1132.31 1009.84 1132.31C896.479 1132.31 821.551 1053.19 821.549 933.464C821.549 814.427 896.478 735.295 1009.84 735.295ZM1012.93 874.707C977.129 874.707 953.473 899.71 953.472 937.519C953.475 975.107 977.131 1000.09 1012.93 1000.09C1048.52 1000.09 1072.18 975.106 1072.18 937.519C1072.18 899.71 1048.52 874.708 1012.93 874.707Z" fill="url(#paint2_linear_105_48)"/>
<path d="M645.169 733.824C691.234 733.824 728.278 754.883 753.756 790.999C779.201 827.07 793.078 878.102 793.078 938.123C793.078 997.794 779.53 1046.6 754.886 1080.53C730.206 1114.51 694.46 1133.48 650.383 1133.48C598.325 1133.48 557.288 1107.55 531.464 1062.74V1247.3C531.463 1257.64 523.496 1266.18 513.514 1266.18H339.99C330.01 1266.17 322.059 1257.64 322.059 1247.3V1118.65C322.061 1107.42 331.402 1098.56 342.178 1099.94H342.177L373.101 1103.9C381.943 1105.03 389.904 1097.73 389.904 1088.08V857.675C389.904 848.028 381.943 840.722 373.101 841.855L342.177 845.815L342.178 845.816C331.399 847.199 322.059 838.314 322.059 827.079V766.456C322.059 756.116 330.01 747.58 339.99 747.575H513.514C523.496 747.576 531.464 756.112 531.464 766.456V801.098C556 758.374 595.097 733.826 645.169 733.824ZM1530.03 733.824C1576.1 733.824 1613.14 754.883 1638.62 790.999C1664.06 827.07 1677.94 878.102 1677.94 938.123C1677.94 997.794 1664.39 1046.6 1639.75 1080.53C1615.07 1114.51 1579.32 1133.48 1535.25 1133.48C1483.19 1133.48 1442.15 1107.55 1416.33 1062.74V1247.3C1416.33 1257.64 1408.36 1266.18 1398.38 1266.18H1224.87C1214.89 1266.18 1206.92 1257.64 1206.92 1247.3V1118.65C1206.92 1107.42 1216.26 1098.56 1227.04 1099.94L1257.96 1103.9C1266.81 1105.03 1274.77 1097.73 1274.77 1088.08V857.675C1274.77 848.028 1266.81 840.722 1257.96 841.855L1227.04 845.816C1216.26 847.199 1206.92 838.314 1206.92 827.079V766.456C1206.92 756.112 1214.89 747.575 1224.87 747.575H1398.38C1408.36 747.576 1416.33 756.112 1416.33 766.456V801.098C1440.86 758.374 1479.96 733.827 1530.03 733.824ZM1009.84 733.824C1066.55 733.826 1113.86 753.744 1146.98 788.731C1180.1 823.712 1198.94 873.637 1198.94 933.464C1198.93 993.631 1180.1 1043.73 1146.98 1078.79C1113.86 1113.86 1066.55 1133.78 1009.84 1133.78C952.803 1133.78 905.328 1113.87 872.116 1078.79C838.912 1043.73 820.079 993.632 820.078 933.464C820.078 873.636 838.913 823.709 872.117 788.729C905.328 753.741 952.803 733.824 1009.84 733.824ZM1012.93 876.178C995.384 876.178 980.923 882.295 970.844 892.945C960.757 903.603 954.944 918.922 954.943 937.519C954.945 956.002 960.757 971.26 970.844 981.885C980.924 992.502 995.384 998.615 1012.93 998.615C1030.36 998.615 1044.77 992.504 1054.83 981.886C1064.9 971.26 1070.71 956.002 1070.71 937.519C1070.71 918.922 1064.9 903.603 1054.83 892.944C1044.77 882.294 1030.36 876.178 1012.93 876.178ZM591.161 868.765C570.355 868.765 558.219 875.332 551.162 886.477C544.003 897.783 541.872 914.08 541.872 933.992C541.872 953.558 544.001 969.679 551.158 980.896C558.214 991.955 570.353 998.52 591.161 998.521C611.654 998.52 626.675 991.936 636.592 980.713C646.534 969.461 651.518 953.351 651.519 933.992C651.518 914.284 646.53 897.999 636.587 886.66C626.67 875.352 611.653 868.765 591.161 868.765ZM1476.02 868.765C1455.22 868.765 1443.08 875.332 1436.02 886.477C1428.86 897.783 1426.74 914.08 1426.74 933.992C1426.74 953.558 1428.86 969.679 1436.02 980.896C1443.08 991.955 1455.22 998.52 1476.02 998.521C1496.52 998.521 1511.54 991.937 1521.45 980.714C1531.4 969.462 1536.38 953.352 1536.38 933.992C1536.38 914.284 1531.39 897.999 1521.45 886.659C1511.53 875.351 1496.52 868.765 1476.02 868.765Z" stroke="url(#paint3_linear_105_48)" stroke-width="2.94118"/>
</g>
<defs>
<filter id="filter0_n_105_48" x="320.588" y="732.354" width="1358.82" height="535.295" filterUnits="userSpaceOnUse" color-interpolation-filters="sRGB">
<feFlood flood-opacity="0" result="BackgroundImageFix"/>
<feBlend mode="normal" in="SourceGraphic" in2="BackgroundImageFix" result="shape"/>
<feTurbulence type="fractalNoise" baseFrequency="0.35661894083023071 0.35661894083023071" stitchTiles="stitch" numOctaves="3" result="noise" seed="5619" />
<feColorMatrix in="noise" type="luminanceToAlpha" result="alphaNoise" />
<feComponentTransfer in="alphaNoise" result="coloredNoise1">
<feFuncA type="discrete" tableValues="0 0 0 0 0 0 1 1 1 1 1 1 1 1 1 1 1 1 1 1 1 1 1 1 1 1 1 1 1 1 1 1 1 1 1 1 1 1 1 1 1 1 1 1 0 0 0 0 0 0 0 0 0 0 0 0 0 0 0 0 0 0 0 0 0 0 0 0 0 0 0 0 0 0 0 0 0 0 0 0 0 0 0 0 0 0 0 0 0 0 0 0 0 0 0 0 0 0 0 0 "/>
</feComponentTransfer>
<feComposite operator="in" in2="shape" in="coloredNoise1" result="noise1Clipped" />
<feFlood flood-color="rgba(0, 0, 0, 0.15)" result="color1Flood" />
<feComposite operator="in" in2="noise1Clipped" in="color1Flood" result="color1" />
<feMerge result="effect1_noise_105_48">
<feMergeNode in="shape" />
<feMergeNode in="color1" />
</feMerge>
</filter>
<linearGradient id="paint0_linear_105_48" x1="1001.83" y1="735.295" x2="1001.83" y2="1264.71" gradientUnits="userSpaceOnUse">
<stop stop-color="white"/>
<stop offset="1" stop-color="#999999"/>
</linearGradient>
<linearGradient id="paint1_linear_105_48" x1="1001.83" y1="735.295" x2="1001.83" y2="1264.71" gradientUnits="userSpaceOnUse">
<stop stop-color="white"/>
<stop offset="1" stop-color="#999999"/>
</linearGradient>
<linearGradient id="paint2_linear_105_48" x1="1001.83" y1="735.295" x2="1001.83" y2="1264.71" gradientUnits="userSpaceOnUse">
<stop stop-color="white"/>
<stop offset="1" stop-color="#999999"/>
</linearGradient>
<linearGradient id="paint3_linear_105_48" x1="1000" y1="735.295" x2="1000" y2="1264.71" gradientUnits="userSpaceOnUse">
<stop stop-color="#7A7A7A"/>
<stop offset="1" stop-color="#E1E1E1"/>
</linearGradient>
</defs>
</svg>
